<svg xmlns="http://www.w3.org/2000/svg" viewBox="0 0 184 93.44"><defs><style>.cls-1{fill:#fff;}.cls-2{fill:#ccc;}.cls-3,.cls-4{fill:#050505;}.cls-3,.cls-5{fill-rule:evenodd;}.cls-5{fill:#d32323;}</style></defs><title>Yelp-logo</title><g id="Layer_2" data-name="Layer 2"><g id="logos"><path class="cls-1" d="M182.21,63.27a9.9,9.9,0,0,0-5.88-13.68l-.32-.1a9.91,9.91,0,0,0,6.68-13.56,32.61,32.61,0,0,0-8.41-11.56,9.91,9.91,0,0,0-6.53-2.47h-.05a9.77,9.77,0,0,0-8.36,4.65V10.41a9.87,9.87,0,0,0-9.88-9.9h-.06a45.93,45.93,0,0,0-9.54,1.55,48.55,48.55,0,0,0-8.4,3.09A9.88,9.88,0,0,0,127.16,19l8.06,14a9.91,9.91,0,0,0-14,5.59c-.1.29-.2.59-.29.89a17.69,17.69,0,0,0-4.74-3.25,19.53,19.53,0,0,0-8.35-1.88,18.87,18.87,0,0,0-6.37,1.1A10.61,10.61,0,0,0,89.81,36.6v-2a10.65,10.65,0,0,0-21.3,0v5.87A19.55,19.55,0,0,0,54.32,34.6a20,20,0,0,0-12.48,4.51,10.75,10.75,0,0,0-19,3.09l-.45,1.46-1.46-3a10.87,10.87,0,0,0-9.64-6.07,10.86,10.86,0,0,0-4.74,1.12A10.75,10.75,0,0,0,1.6,50.09L11.79,71A10.56,10.56,0,0,0,7.16,86.92c1.49,2,4.43,4.47,10,4.6h.6c7.76,0,13.43-3.84,15.57-10.52.88-2.76,1.9-6,3-9.34.19.43.39.84.61,1.25,3.35,6.37,9.49,9.88,17.27,9.88,7.34,0,12.48-2.48,15.67-5.7a10.64,10.64,0,0,0,16,3.24v2a10.65,10.65,0,0,0,21.29.27h.47c1.84,0,8.66-.35,13.38-5.37a18.38,18.38,0,0,0,2.59-3.38,9.14,9.14,0,0,0,8,.38,10.36,10.36,0,0,0,2.18,2A33.26,33.26,0,0,0,147,81.6a10,10,0,0,0,1.64.13,9.85,9.85,0,0,0,9.89-9.55v-.34l.18.29a9.91,9.91,0,0,0,14.7,2.39A33.27,33.27,0,0,0,182.21,63.27Z"/><path class="cls-2" d="M177.54,49.52a10.33,10.33,0,0,0,5.48-5.2,10.54,10.54,0,0,0,.13-8.59A33.17,33.17,0,0,0,174.62,24a10.48,10.48,0,0,0-6.87-2.6h-.05A10.14,10.14,0,0,0,159.85,25V10.41A10.38,10.38,0,0,0,149.46,0h-.06a47,47,0,0,0-9.68,1.57,49.48,49.48,0,0,0-8.48,3.12,10.41,10.41,0,0,0-4.52,14.6L134,31.93a10.51,10.51,0,0,0-3.43-.58,10.39,10.39,0,0,0-9.86,7.08l0,.15a18.39,18.39,0,0,0-4.28-2.8,20.07,20.07,0,0,0-8.57-1.93,19.46,19.46,0,0,0-6.33,1,11.16,11.16,0,0,0-11.18.69v-.94a11.16,11.16,0,1,0-22.31,0v4.66a20.26,20.26,0,0,0-13.68-5.22,20.54,20.54,0,0,0-12.39,4.29,11.15,11.15,0,0,0-5.49-3.76,11.39,11.39,0,0,0-3.33-.5,11.2,11.2,0,0,0-10.75,7.93l-.08.24-.9-1.85a11.38,11.38,0,0,0-10.09-6.35,11.42,11.42,0,0,0-5,1.17A11.26,11.26,0,0,0,1.15,50.32l10,20.4a10.66,10.66,0,0,0-6,7,10.84,10.84,0,0,0,1.64,9.48c1.56,2.12,4.63,4.67,10.36,4.81h.61c8,0,13.85-4,16.06-10.88l2.56-8.11.06.11C39.85,79.7,46.14,83.3,54.12,83.3s12.82-2.82,15.55-5.38a11.14,11.14,0,0,0,15.66,3.42v1a11.15,11.15,0,0,0,22.28.79c2,0,8.93-.41,13.74-5.54l.07-.08a17.84,17.84,0,0,0,2.34-3,9.73,9.73,0,0,0,4.21,1,9.59,9.59,0,0,0,3.48-.65,10.65,10.65,0,0,0,2.05,1.86,33.8,33.8,0,0,0,13.42,5.43,11.11,11.11,0,0,0,1.73.14A10.36,10.36,0,0,0,159,73.32a10.35,10.35,0,0,0,8.18,4,10.48,10.48,0,0,0,6.63-2.38,33.94,33.94,0,0,0,8.91-11.42,10.4,10.4,0,0,0-5.13-14ZM167.13,76.78a9.88,9.88,0,0,1-8.4-4.65l-.18-.29v.34a9.85,9.85,0,0,1-9.89,9.55A10,10,0,0,1,147,81.6a33.26,33.26,0,0,1-13.23-5.35,10.36,10.36,0,0,1-2.18-2,9.14,9.14,0,0,1-8-.38A18.38,18.38,0,0,1,121,77.2c-4.72,5-11.54,5.37-13.38,5.37h-.47a10.65,10.65,0,0,1-21.29-.27v-2a10.64,10.64,0,0,1-16-3.24c-3.19,3.22-8.33,5.7-15.67,5.7-7.78,0-13.92-3.51-17.27-9.88-.22-.41-.42-.82-.61-1.25-1.05,3.34-2.07,6.58-3,9.34-2.14,6.68-7.81,10.52-15.57,10.52h-.6c-5.53-.13-8.47-2.57-10-4.6A10.56,10.56,0,0,1,11.79,71L1.6,50.09A10.75,10.75,0,0,1,6.55,35.72a10.86,10.86,0,0,1,4.74-1.12,10.87,10.87,0,0,1,9.64,6.07l1.46,3,.45-1.46a10.75,10.75,0,0,1,19-3.09A20,20,0,0,1,54.32,34.6a19.55,19.55,0,0,1,14.19,5.92V34.65a10.65,10.65,0,0,1,21.3,0v2a10.61,10.61,0,0,1,11.64-1.14,18.87,18.87,0,0,1,6.37-1.1,19.53,19.53,0,0,1,8.35,1.88,17.69,17.69,0,0,1,4.74,3.25c.09-.3.19-.6.29-.89a9.91,9.91,0,0,1,14-5.59l-8.06-14a9.88,9.88,0,0,1,4.3-13.88,48.55,48.55,0,0,1,8.4-3.09A45.93,45.93,0,0,1,149.4.51h.06a9.87,9.87,0,0,1,9.88,9.9V26.55a9.77,9.77,0,0,1,8.36-4.65h.05a9.91,9.91,0,0,1,6.53,2.47,32.61,32.61,0,0,1,8.41,11.56A9.91,9.91,0,0,1,176,49.49l.32.1a9.9,9.9,0,0,1,5.88,13.68,33.27,33.27,0,0,1-8.78,11.25A9.91,9.91,0,0,1,167.13,76.78Z"/><path class="cls-3" d="M82.92,72.05a3.76,3.76,0,0,1-7.52,0V34.65a3.76,3.76,0,0,1,7.52,0Z"/><path class="cls-4" d="M50.38,61.59H64.16a4,4,0,0,0,3.66-4.19h0c0-.07,0-.13,0-.19-.67-13.73-9.48-15.72-13.48-15.72S40.75,43.94,40.75,59.2c.07,5.74,1.3,16.71,13.37,16.71,10.43,0,12.76-6,12.76-7.56,0-2.26-1.89-4.19-4-3.46-1.73.58-4.1,4-7.92,4-5.47,0-6.18-5-6.18-6.07C48.76,62,49.22,61.63,50.38,61.59Zm-1.64-6.72c.25-5.19,4.19-6,5.95-6s5.73.87,5.94,6.14c0,.28-.15.44-.31.44H49.07C48.89,55.4,48.72,55.22,48.74,54.87Z"/><path class="cls-4" d="M19.54,71.14,7.79,47.07a3.86,3.86,0,0,1,6.94-3.38l9.1,18.63,5.59-18.08a3.86,3.86,0,1,1,7.38,2.28S30.51,67.09,26.73,78.91c-1.25,3.91-4.53,5.85-9.44,5.73s-5.61-3-5.07-4.88a3.77,3.77,0,0,1,4-2.69C20.63,77.09,21.19,74.43,19.54,71.14Z"/><path class="cls-4" d="M128,64.09a2.09,2.09,0,1,1-2.11,2.1A2.08,2.08,0,0,1,128,64.09ZM128,68a1.79,1.79,0,1,0-1.77-1.77A1.76,1.76,0,0,0,128,68Zm-.78-3h.89c.58,0,.85.21.85.7a.62.62,0,0,1-.64.65l.7,1.08h-.37l-.66-1h-.43v1h-.34Zm.34,1.08h.41c.34,0,.66,0,.66-.4s-.29-.38-.55-.38h-.52Z"/><path class="cls-4" d="M120.05,57.11c0-4.93-.6-11.69-6.83-14.65a12.25,12.25,0,0,0-11.17.28A22.68,22.68,0,0,0,100.13,44a3.75,3.75,0,0,0-7.4.89V82.29a3.76,3.76,0,0,0,7.51,0V72.47a9.54,9.54,0,0,0,6.55,3.2C121.07,76,120.13,60.51,120.05,57.11ZM112.61,60c0,3,0,8.31-5.41,8.31s-5.4-5.33-5.4-8.31V57.25c0-3,0-8.3,5.4-8.3s5.41,5.33,5.41,8.3Z"/><path class="cls-5" d="M131.9,39.05,145,45.45a3,3,0,0,1-.59,5.63l-14.17,3.53A3,3,0,0,1,126.54,52a26,26,0,0,1,1.19-11.23A3,3,0,0,1,131.9,39.05Z"/><path class="cls-5" d="M137.15,66.07l9.77-10.85a3,3,0,0,1,5.25,2.12l-.51,14.6a3,3,0,0,1-3.51,2.86,26.11,26.11,0,0,1-10.47-4.23A3,3,0,0,1,137.15,66.07Z"/><path class="cls-5" d="M160.32,51.63l13.88,4.52A3,3,0,0,1,176,60.3a26,26,0,0,1-6.94,8.9,3,3,0,0,1-4.47-.72l-7.74-12.39A3,3,0,0,1,160.32,51.63Z"/><path class="cls-5" d="M174.44,42.77l-14,4a3,3,0,0,1-3.32-4.58l8.17-12.1a3,3,0,0,1,4.48-.58,25.93,25.93,0,0,1,6.64,9.13A3,3,0,0,1,174.44,42.77Z"/><path class="cls-5" d="M141.64,8.71a42,42,0,0,0-7.22,2.66,3,3,0,0,0-1.3,4.22l13.72,23.76a3,3,0,0,0,5.62-1.5V10.41a3,3,0,0,0-3.24-3A41.05,41.05,0,0,0,141.64,8.71Z"/></g></g></svg>